<svg width="61" height="20" viewBox="0 0 61 20" fill="none" xmlns="http://www.w3.org/2000/svg">
<path d="M60.4973 13.8448H54.8712V15.7666C54.8712 16.2123 54.9919 16.5558 55.2333 16.7972C55.4932 17.0385 55.8367 17.1592 56.2638 17.1592C56.8023 17.1592 57.1551 17.0014 57.3222 16.6858C57.5078 16.3701 57.6193 16.0544 57.6564 15.7388H60.4973C60.4973 16.9828 60.1167 17.9855 59.3554 18.7468C58.984 19.1367 58.5384 19.4431 58.0185 19.6659C57.4986 19.8887 56.9137 20.0002 56.2638 20.0002C55.3725 20.0002 54.6112 19.8145 53.9799 19.4431C53.3672 19.0717 52.8937 18.5797 52.5595 17.967C52.3552 17.5956 52.216 17.1685 52.1417 16.6858C52.0674 16.203 52.0303 15.6738 52.0303 15.0982V10.4469C52.0303 9.87128 52.0674 9.34209 52.1417 8.85932C52.216 8.37655 52.3552 7.94948 52.5595 7.57812C52.8937 6.96538 53.3672 6.47332 53.9799 6.10196C54.6112 5.7306 55.3725 5.54492 56.2638 5.54492C56.9137 5.54492 57.4986 5.65633 58.0185 5.87915C58.5569 6.10196 59.0119 6.40834 59.3832 6.79827C60.1259 7.63383 60.4973 8.68292 60.4973 9.94555V13.8448ZM54.8712 11.6167H57.6564V10.0013C57.6564 9.46278 57.5264 9.06357 57.2665 8.80361C57.0251 8.52509 56.6909 8.38583 56.2638 8.38583C55.8367 8.38583 55.4932 8.52509 55.2333 8.80361C54.9919 9.06357 54.8712 9.46278 54.8712 10.0013V11.6167Z" fill="#4F5E65"/>
<path d="M44.5293 19.833V5.71203H47.3702V7.21605C47.9458 6.69614 48.5121 6.28764 49.0692 5.99056C49.6262 5.69347 50.3133 5.54492 51.1302 5.54492V8.55295C50.8517 8.44154 50.5639 8.38583 50.2668 8.38583C49.9697 8.38583 49.6448 8.44154 49.292 8.55295C48.9578 8.64579 48.6514 8.8129 48.3729 9.05428C48.0758 9.29567 47.8344 9.61133 47.6487 10.0013C47.4631 10.3912 47.3702 10.874 47.3702 11.4496V19.833H44.5293Z" fill="#4F5E65"/>
<path d="M33.97 10.4469C33.97 9.87128 34.0071 9.34209 34.0814 8.85932C34.1557 8.37655 34.2949 7.94948 34.4992 7.57812C34.8334 6.96538 35.3069 6.47332 35.9196 6.10196C36.5509 5.7306 37.3122 5.54492 38.2035 5.54492C39.0948 5.54492 39.8468 5.7306 40.4595 6.10196C41.0908 6.47332 41.5736 6.96538 41.9078 7.57812C42.1121 7.94948 42.2513 8.37655 42.3256 8.85932C42.3999 9.34209 42.437 9.87128 42.437 10.4469V15.0982C42.437 15.6738 42.3999 16.203 42.3256 16.6858C42.2513 17.1685 42.1121 17.5956 41.9078 17.967C41.5736 18.5797 41.0908 19.0717 40.4595 19.4431C39.8468 19.8145 39.0948 20.0002 38.2035 20.0002C37.3122 20.0002 36.5509 19.8145 35.9196 19.4431C35.3069 19.0717 34.8334 18.5797 34.4992 17.967C34.2949 17.5956 34.1557 17.1685 34.0814 16.6858C34.0071 16.203 33.97 15.6738 33.97 15.0982V10.4469ZM36.8109 15.5438C36.8109 16.0823 36.9316 16.4908 37.173 16.7693C37.4329 17.0293 37.7764 17.1592 38.2035 17.1592C38.6306 17.1592 38.9648 17.0293 39.2062 16.7693C39.4661 16.4908 39.5961 16.0823 39.5961 15.5438V10.0013C39.5961 9.46278 39.4661 9.06357 39.2062 8.80361C38.9648 8.52509 38.6306 8.38583 38.2035 8.38583C37.7764 8.38583 37.4329 8.52509 37.173 8.80361C36.9316 9.06357 36.8109 9.46278 36.8109 10.0013V15.5438Z" fill="#4F5E65"/>
<path d="M18.9114 19.8307V0H21.6409L25.2895 10.5002H25.3452L28.966 0H31.7233V19.8307H28.8824V7.77073H28.8267L26.0137 16.2935H24.5932L21.808 7.77073H21.7523V19.8307H18.9114Z" fill="#4F5E65"/>
<path d="M8.82911 19.8303L7.88214 18.3263C7.3251 18.8834 6.74949 19.3011 6.15531 19.5797C5.56113 19.8582 4.87412 19.9974 4.09426 19.9974C3.53722 19.9974 3.00803 19.886 2.50669 19.6632C2.00535 19.4404 1.569 19.1248 1.19764 18.7163C0.826279 18.3263 0.52919 17.8528 0.306373 17.2958C0.102125 16.7202 0 16.0889 0 15.4019C0 14.3063 0.259953 13.3501 0.779859 12.5331C1.29976 11.7161 1.94965 10.9548 2.72951 10.2492C2.22817 9.54363 1.81039 8.81948 1.47616 8.07676C1.1605 7.31547 1.00268 6.51704 1.00268 5.68148C1.00268 5.16157 1.08623 4.66952 1.25334 4.20532C1.42046 3.72255 1.66184 3.30477 1.9775 2.95197C2.29316 2.61775 2.69237 2.34851 3.17514 2.14426C3.65791 1.94001 4.22423 1.83789 4.87412 1.83789C5.48686 1.83789 6.02534 1.94001 6.48954 2.14426C6.95374 2.32994 7.34367 2.58061 7.65932 2.89627C8.30921 3.58329 8.63415 4.42813 8.63415 5.43081C8.63415 6.37778 8.34634 7.26905 7.77073 8.10461C7.19512 8.94017 6.51739 9.71075 5.73753 10.4163C5.92321 10.6763 6.10889 10.9734 6.29457 11.3076C6.49882 11.6418 6.72164 11.9946 6.96302 12.366C7.42722 13.1644 7.89142 13.8978 8.35563 14.5663L9.88749 12.4774L11.6422 13.7029L9.52541 16.4324L11.67 19.8303H8.82911ZM2.50669 15.2626C2.50669 15.9496 2.70165 16.5438 3.09158 17.0451C3.50008 17.5279 4.0107 17.7693 4.62345 17.7693C5.05051 17.7693 5.45901 17.6393 5.84894 17.3794C6.23887 17.1008 6.53596 16.8316 6.7402 16.5716L4.0107 12.2267C3.58364 12.6538 3.22156 13.118 2.92447 13.6193C2.64595 14.1021 2.50669 14.6498 2.50669 15.2626ZM3.50936 5.73718C3.50936 6.16425 3.61149 6.62845 3.81574 7.12979C4.01998 7.61256 4.27994 8.10461 4.59559 8.60595C4.76271 8.43883 4.94839 8.25315 5.15264 8.04891C5.35688 7.82609 5.54257 7.5847 5.70968 7.32475C5.87679 7.0648 6.01605 6.78628 6.12746 6.48919C6.23887 6.17353 6.29457 5.83931 6.29457 5.48651C6.29457 5.13372 6.17388 4.80878 5.93249 4.51169C5.69111 4.2146 5.35688 4.06606 4.92982 4.06606C4.50275 4.06606 4.15924 4.24245 3.89929 4.59525C3.63934 4.92947 3.50936 5.31012 3.50936 5.73718Z" fill="#4F5E65"/>
</svg>
