<svg width="24" height="24" viewBox="0 0 24 24" fill="none" xmlns="http://www.w3.org/2000/svg">
<path d="M13.7644 11.9988L18.8826 6.88492C19.3725 6.39551 19.3725 5.60647 18.8826 5.11706C18.3928 4.62765 17.6031 4.62765 17.1132 5.11706L11.995 10.2309L6.87677 5.12704C6.39693 4.63764 5.59721 4.63764 5.11737 5.12704C4.63754 5.61645 4.62754 6.4055 5.11737 6.88492L10.2356 11.9988L5.11737 17.1126C4.62754 17.602 4.62754 18.391 5.11737 18.8804C5.35729 19.1202 5.67718 19.25 5.99707 19.25C6.31696 19.25 6.63685 19.1301 6.87677 18.8804L11.995 13.7666L17.1132 18.8804C17.3532 19.1202 17.673 19.25 17.9929 19.25C18.3128 19.25 18.6327 19.1301 18.8726 18.8804C19.3625 18.391 19.3625 17.602 18.8726 17.1126L13.7544 11.9988H13.7644Z" fill="#252525"/>
</svg>
