<svg width="24" height="24" fill="none" xmlns="http://www.w3.org/2000/svg"><path fill-rule="evenodd" clip-rule="evenodd" d="M19.36 3.18c.37-.15.78-.1 1.11.12h.01c.32.22.52.591.52.991v10.056c0 .49-.29.92-.74 1.11-.55.23-2.55.991-4.79.991-1.34 0-2.76-.26-4.01-1.07-2.02-1.561-5.25-.63-6.46-.2V21c0 .55-.45 1-1 1s-1-.45-1-1V4a1 1 0 0 1 .66-.94.117.117 0 0 0 .035-.02c.01-.008.02-.015.035-.02.93-.39 5.73-2.212 8.89.23 2.36 1.52 6.03.21 6.74-.07Zm-6.55 8.956c.79-.71 1.52-1.421 2.18-2.131h-.01c.67-.71 1-1.431 1-2.152 0-.53-.17-.97-.54-1.32-.37-.35-.82-.53-1.35-.53-.31 0-.65.08-1.01.25-.36.17-.72.52-1.08 1.07-.35-.55-.71-.9-1.08-1.07-.37-.17-.7-.25-1.01-.25-.54 0-.99.17-1.35.53-.36.36-.54.8-.54 1.32 0 .7.31 1.401.94 2.102.62.7 1.37 1.43 2.23 2.19l.4.361c.12.1.26.15.41.15.15 0 .29-.06.41-.16l.4-.36Z" fill="#3B3B3B"/></svg>