<svg width="24" height="24" viewBox="0 0 24 24" fill="none" xmlns="http://www.w3.org/2000/svg">
<path fill-rule="evenodd" clip-rule="evenodd" d="M12 15.75C13.24 15.75 14.25 16.76 14.25 18C14.25 19.24 13.24 20.25 12 20.25C10.76 20.25 9.75 19.24 9.75 18C9.75 16.76 10.76 15.75 12 15.75Z" fill="#252525"/>
<path fill-rule="evenodd" clip-rule="evenodd" d="M12 9.75C13.24 9.75 14.25 10.76 14.25 12C14.25 13.24 13.24 14.25 12 14.25C10.76 14.25 9.75 13.24 9.75 12C9.75 10.76 10.76 9.75 12 9.75Z" fill="#252525"/>
<path fill-rule="evenodd" clip-rule="evenodd" d="M12 3.75C13.24 3.75 14.25 4.76 14.25 6C14.25 7.24 13.24 8.25 12 8.25C10.76 8.25 9.75 7.24 9.75 6C9.75 4.76 10.76 3.75 12 3.75Z" fill="#252525"/>
</svg>
