<svg width="24" height="24" viewBox="0 0 24 24" fill="none" xmlns="http://www.w3.org/2000/svg">
<path fill-rule="evenodd" clip-rule="evenodd" d="M20.8918 3.11538H6.339C5.91197 3.11555 5.50253 3.28549 5.20087 3.58774C4.89922 3.88999 4.73009 4.29977 4.73076 4.7268V6.34614H3.10824C2.68121 6.34632 2.27178 6.51626 1.97012 6.81851C1.66847 7.12076 1.49934 7.53053 1.5 7.95756V19.2732C1.49949 19.7002 1.66867 20.1099 1.97029 20.4121C2.27191 20.7143 2.68126 20.8843 3.10824 20.8846H17.661C18.088 20.8844 18.4975 20.7145 18.7991 20.4123C19.1008 20.11 19.2699 19.7002 19.2692 19.2732V17.6538H20.8918C21.3188 17.6537 21.7282 17.4837 22.0299 17.1815C22.3315 16.8792 22.5007 16.4694 22.5 16.0424V4.7268C22.5005 4.29982 22.3313 3.89013 22.0297 3.58792C21.7281 3.2857 21.3187 3.11571 20.8918 3.11538ZM17.6538 19.2692H3.11538V9.5769H4.73076V16.0389C4.7291 16.467 4.89811 16.8781 5.20039 17.1812C5.50268 17.4843 5.91329 17.6544 6.34137 17.654H17.6538V19.2692ZM20.8846 16.0385H6.34617V6.34614H20.8846V16.0385Z" fill="#252525"/>
</svg>
