<svg width="24" height="24" viewBox="0 0 24 24" fill="none" xmlns="http://www.w3.org/2000/svg">
<path d="M21.7076 8.29486L15.7091 2.29261C15.3192 1.90246 14.6893 1.90246 14.2994 2.29261C14.0095 2.58272 13.9295 3.01288 14.0795 3.37301L9.38066 8.07478C7.51112 7.81468 5.65159 8.42491 4.30192 9.77542C3.91202 10.1656 3.91202 10.7958 4.30192 11.1859L7.85104 14.7373L2.29243 20.2994C1.90252 20.6895 1.90252 21.3197 2.29243 21.7099C2.49238 21.91 2.74231 22 3.00225 22C3.26218 22 3.51212 21.9 3.71207 21.7099L9.26069 16.1578L12.8098 19.7091C12.9998 19.8992 13.2597 19.9993 13.5096 19.9993C13.7596 19.9993 14.0395 19.8992 14.2394 19.6991C15.5791 18.3586 16.189 16.4979 15.929 14.6272L20.6278 9.92547C20.7478 9.97549 20.8778 9.9955 20.9978 9.9955C21.2577 9.9955 21.5076 9.89546 21.7076 9.70539C22.0975 9.31524 22.0975 8.68501 21.7076 8.29486Z" fill="#252525"/>
</svg>
